<svg xmlns="http://www.w3.org/2000/svg"><defs>
<symbol id="bookmark" viewBox="0 0 32 32"><title>Bookmark</title><path d="M6 0v32l10-10 10 10V0z"/></symbol>
<symbol id="email" viewBox="0 0 32 32"><title>Email</title><path d="M29 4H3C1.35 4 0 5.35 0 7v20c0 1.65 1.35 3 3 3h26c1.65 0 3-1.35 3-3V7c0-1.65-1.35-3-3-3zM12.46 17.2L4 23.79V8.112l8.46 9.086zM5.513 8H26.49L16 15.875 5.512 8zm7.278 9.553L16 21l3.21-3.447L25.79 26H6.21l6.58-8.447zm6.75-.354L28 8.11v15.68l-8.46-6.59z"/></symbol>
<symbol id="facebook" viewBox="0 0 32 32"><title>Facebook</title><path d="M29 0H3a3 3 0 0 0-3 3v26a3 3 0 0 0 3 3h13V18h-4v-4h4v-2c0-3.3 2.7-6 6-6h4v4h-4a2 2 0 0 0-2 2v2h6l-1 4h-5v14h9a3 3 0 0 0 3-3V3a3 3 0 0 0-3-3z"/></symbol>
<symbol id="feed" viewBox="0 0 32 32"><title>Feed</title><path d="M4.26 23.467C1.91 23.467 0 25.384 0 27.72c0 2.348 1.91 4.243 4.26 4.243 2.357 0 4.264-1.895 4.264-4.244 0-2.338-1.907-4.254-4.265-4.254zM.004 10.873v6.133c3.993 0 7.75 1.562 10.577 4.39 2.826 2.823 4.385 6.596 4.385 10.604h6.16c0-11.65-9.478-21.127-21.12-21.127zM.012 0v6.136C14.255 6.136 25.848 17.74 25.848 32H32C32 14.36 17.648 0 .012 0z"/></symbol>
<symbol id="github" viewBox="0 0 32 32"><title>GitHub</title><path d="M16 .4a16 16 0 0 0-5.06 31.18c.8.14 1.1-.35 1.1-.77L12 27.83c-4.45.97-5.39-1.89-5.39-1.89-.73-1.85-1.77-2.34-1.77-2.34-1.46-1 .1-.97.1-.97 1.61.1 2.46 1.64 2.46 1.64 1.43 2.45 3.74 1.74 4.65 1.33a3.4 3.4 0 0 1 1.02-2.14c-3.55-.4-7.29-1.77-7.29-7.9a6.2 6.2 0 0 1 1.65-4.3c-.17-.4-.71-2.03.15-4.23 0 0 1.35-.43 4.4 1.64a15.35 15.35 0 0 1 8.02 0c3.05-2.07 4.4-1.64 4.4-1.64.86 2.2.32 3.83.15 4.23a6.18 6.18 0 0 1 1.65 4.3c0 6.14-3.75 7.5-7.3 7.9.57.49 1.08 1.46 1.08 2.96l-.02 4.39c0 .42.29.92 1.1.76A16 16 0 0 0 16 .4z"/></symbol>
<symbol id="microblog" viewBox="0 0 32 32"><title>Micro.blog</title><path d="M28.53 23.6a6.37 6.37 0 0 0-.4 7.87c.4.53-.13.53-.4.53a8.03 8.03 0 0 1-5.31-3.57l-.02-.03c-.27-.13-.4-.27-.67-.13a16.6 16.6 0 0 1-5.73.8c-8.8 0-16-6.4-16-14.4S7.2 0 16 0s16 6.53 16 14.67c0 3.33-1.33 6.4-3.47 8.93zM16 18.67l4.27 2.93c.07.05.17.07.27.07a.53.53 0 0 0 .53-.6L19.47 16l4.13-3.2a.53.53 0 0 0-.26-.8h-5.2L16.4 6.93a.53.53 0 0 0-.8 0L13.87 12H8.53a.53.53 0 0 0-.13.93l4 3.2-1.33 4.94v.01a.53.53 0 0 0 .67.52L16 18.67z"/></symbol>
<symbol id="search" viewBox="0 0 32 32"><title>Search</title><path d="M31 27.23l-7.57-6.45c-.8-.7-1.62-1.02-2.3-1C22.93 17.7 24 15 24 12c0-6.63-5.37-12-12-12S0 5.37 0 12s5.37 12 12 12c2.97 0 5.7-1.08 7.8-2.87-.05.68.28 1.5.98 2.3L27.23 31c1.1 1.23 2.9 1.34 4 .24s1-2.9-.22-4zM12 20c-4.42 0-8-3.58-8-8s3.58-8 8-8 8 3.58 8 8-3.58 8-8 8z"/></symbol>
<symbol id="twitter" viewBox="0 0 32 32"><title>Twitter</title><path d="M32 7.075c-1.175.525-2.444.875-3.77 1.03 1.357-.812 2.395-2.1 2.888-3.63-1.27.75-2.675 1.3-4.17 1.594C25.75 4.79 24.044 4 22.156 4c-3.625 0-6.563 2.938-6.563 6.563 0 .512.056 1.012.17 1.494-5.46-.275-10.297-2.887-13.533-6.862-.563.97-.887 2.1-.887 3.3 0 2.275 1.156 4.287 2.92 5.463-1.076-.03-2.088-.33-2.976-.82v.082c0 3.18 2.263 5.838 5.27 6.437-.55.15-1.132.23-1.732.23-.425 0-.83-.043-1.237-.118.838 2.6 3.263 4.5 6.13 4.56-2.25 1.76-5.074 2.81-8.155 2.81-.53 0-1.05-.03-1.57-.094C2.908 28.92 6.357 30 10.063 30c12.076 0 18.68-10.005 18.68-18.68 0-.287-.004-.57-.017-.85 1.28-.92 2.394-2.075 3.275-3.394z"/></symbol>
</defs></svg>
