<svg xmlns="http://www.w3.org/2000/svg"><defs>
<symbol id="audio" viewBox="0 0 32 32"><title>Audio</title><path d="M28.68 7.16a29.6 29.6 0 0 0-5.84-5.84C21.23.14 20.44 0 20 0H4.5A2.5 2.5 0 0 0 2 2.5v27A2.5 2.5 0 0 0 4.5 32h23a2.5 2.5 0 0 0 2.5-2.5V10c0-.45-.14-1.23-1.32-2.84zm-4.14-1.7A26.3 26.3 0 0 1 26.81 8H22V3.19c.72.56 1.58 1.3 2.54 2.27zM28 29.5a.5.5 0 0 1-.5.5h-23a.5.5 0 0 1-.5-.5v-27c0-.27.23-.5.5-.5H20v7a1 1 0 0 0 1 1h7v19.5z"/><path d="M23.63 12.23a1 1 0 0 0-.83-.21l-10 2a1 1 0 0 0-.8.98v7.4a5.04 5.04 0 0 0-2-.4c-2.2 0-4 1.34-4 3s1.8 3 4 3 4-1.34 4-3v-7.18l8-1.6v4.18a5.04 5.04 0 0 0-2-.4c-2.2 0-4 1.34-4 3s1.8 3 4 3 4-1.34 4-3V13a1 1 0 0 0-.37-.77z"/></symbol>
<symbol id="close" viewBox="0 0 32 32"><title>Close</title><path d="M16 0C7.16 0 0 7.16 0 16s7.16 16 16 16 16-7.16 16-16S24.84 0 16 0zm0 29C8.82 29 3 23.18 3 16S8.82 3 16 3s13 5.82 13 13-5.82 13-13 13z"/><path d="M21 8l-5 5-5-5-3 3 5 5-5 5 3 3 5-5 5 5 3-3-5-5 5-5z"/></symbol>
<symbol id="document" viewBox="0 0 32 32"><title>Document</title><path d="M28.68 7.16a29.6 29.6 0 0 0-5.84-5.84C21.23.14 20.44 0 20 0H4.5A2.5 2.5 0 0 0 2 2.5v27A2.5 2.5 0 0 0 4.5 32h23a2.5 2.5 0 0 0 2.5-2.5V10c0-.45-.14-1.23-1.32-2.84zm-4.14-1.7A26.3 26.3 0 0 1 26.81 8H22V3.19c.72.56 1.58 1.3 2.54 2.27zM28 29.5a.5.5 0 0 1-.5.5h-23a.5.5 0 0 1-.5-.5v-27c0-.27.23-.5.5-.5H20v7a1 1 0 0 0 1 1h7v19.5z"/></symbol>
<symbol id="download" viewBox="0 0 32 32"><title>Download</title><path d="M23 14l-8 8-8-8h5V2h6v12zm-8 8H0v8h30v-8H15zm13 4h-4v-2h4v2z"/></symbol>
<symbol id="googleplus" viewBox="0 0 32 32"><title>Google+</title><path d="M10.18 14.54v3.5h5.78c-.23 1.5-1.75 4.39-5.78 4.39A6.38 6.38 0 0 1 3.89 16a6.37 6.37 0 0 1 6.3-6.43c1.98 0 3.3.84 4.06 1.57L17 8.48a10.17 10.17 0 1 0-6.83 17.7c5.89 0 9.79-4.13 9.79-9.95 0-.67-.08-1.18-.16-1.69h-9.62zm21.82 0h-2.91v-2.9h-2.91v2.9h-2.91v2.91h2.91v2.92h2.92v-2.92H32z"/></symbol>
<symbol id="linkedin" viewBox="0 0 32 32"><title>LinkedIn</title><path d="M27.26 27.27h-4.74v-7.43c0-1.77-.03-4.05-2.46-4.05-2.48 0-2.85 1.93-2.85 3.92v7.56h-4.74V12h4.55v2.08h.06a5 5 0 0 1 4.5-2.47c4.8 0 5.68 3.16 5.68 7.28v8.38zM7.12 9.9a2.75 2.75 0 1 1 0-5.5 2.75 2.75 0 0 1 0 5.5zm2.37 17.36H4.74V12h4.75v15.27zM29.63 0H2.36A2.33 2.33 0 0 0 0 2.3v27.4C0 30.96 1.06 32 2.36 32h27.27c1.3 0 2.37-1.03 2.37-2.3V2.3C32 1.03 30.93 0 29.63 0z"/></symbol>
<symbol id="mentions" viewBox="0 0 32 32"><title>Mentions</title><path d="M16 2c8.837 0 16 5.82 16 13s-7.163 13-16 13c-.85 0-1.682-.054-2.495-.158C10.068 31.28 5.965 31.895 2 31.986v-.84c2.142-1.05 4-2.962 4-5.146 0-.305-.024-.604-.068-.897C2.312 22.72 0 19.08 0 15 0 7.82 7.163 2 16 2z"/></symbol>
<symbol id="mentions0" viewBox="0 0 32 32"><title>Mentions</title><path d="M16 6c-1.717 0-3.375.27-4.928.804-1.46.502-2.76 1.21-3.863 2.108C5.14 10.592 4 12.755 4 15c0 1.26.35 2.48 1.04 3.63.71 1.185 1.78 2.268 3.092 3.133.95.625 1.587 1.623 1.755 2.747.056.375.09.753.105 1.13.233-.195.46-.402.684-.625.755-.755 1.774-1.172 2.828-1.172.168 0 .336.01.505.032.653.083 1.323.126 1.99.126 1.715 0 3.373-.27 4.926-.802 1.46-.502 2.76-1.21 3.863-2.108C26.86 19.407 28 17.245 28 15s-1.14-4.406-3.21-6.087c-1.104-.897-2.404-1.606-3.863-2.108C19.374 6.27 17.717 6 16 6zm0-4c8.837 0 16 5.82 16 13s-7.163 13-16 13c-.85 0-1.682-.054-2.495-.158C10.068 31.28 5.965 31.895 2 31.986v-.84c2.142-1.05 4-2.962 4-5.146 0-.305-.024-.604-.068-.897C2.312 22.72 0 19.08 0 15 0 7.82 7.163 2 16 2z"/></symbol>
<symbol id="newtab" viewBox="0 0 32 32"><title>New Tab</title><path d="M6 2v24h24V2H6zm22 22H8V4h20v20zM4 28V7L2 5v25h25l-2-2H4z"/><path d="M11 8l5 5-6 6 3 3 6-6 5 5V8z"/></symbol>
<symbol id="pdf" viewBox="0 0 32 32"><title>PDF</title><path d="M26.31 18.42c-.42-.42-1.37-.64-2.8-.66-.98-.01-2.16.07-3.39.25a8.57 8.57 0 0 1-1.57-1.09 11.46 11.46 0 0 1-2.83-4.39l.11-.44s.68-3.85.5-5.15a1.53 1.53 0 0 0-.09-.37l-.06-.15c-.18-.42-.54-.87-1.11-.85l-.34-.01c-.63 0-1.15.32-1.28.8-.41 1.52.01 3.78.78 6.72l-.2.47a52.88 52.88 0 0 1-1.84 3.88l-.08.16a65.82 65.82 0 0 1-1.75 3.21l-.54.29c-.04.02-.97.51-1.19.64-1.85 1.1-3.08 2.36-3.28 3.36-.07.32-.02.73.31.91l.53.27c.22.11.46.17.71.17 1.32 0 2.85-1.64 4.96-5.32 2.43-.8 5.2-1.46 7.64-1.82 1.85 1.04 4.13 1.77 5.56 1.77.26 0 .48-.03.66-.08.27-.07.5-.22.65-.44.28-.42.33-1 .26-1.59a.99.99 0 0 0-.32-.54zm-19.7 7.02a9.18 9.18 0 0 1 2.6-3.11c.1-.07.31-.28.51-.47-1.47 2.35-2.46 3.28-3.1 3.58zm8.34-19.2c.43 0 .67 1.07.69 2.07s-.22 1.7-.5 2.23c-.25-.77-.37-1.99-.37-2.78 0 0-.01-1.52.18-1.52zm-2.49 13.68l.92-1.68a31.98 31.98 0 0 0 1.61-3.5 11.6 11.6 0 0 0 3.07 3.62 34 34 0 0 0-5.6 1.56zm13.44-.12c-.13.08-.5.13-.74.13-.77 0-1.73-.35-3.06-.93.51-.03.98-.05 1.4-.05.78 0 1 0 1.77.19s.76.58.63.66z"/><path d="M28.68 7.16a29.6 29.6 0 0 0-5.84-5.84C21.23.14 20.44 0 20 0H4.5A2.5 2.5 0 0 0 2 2.5v27A2.5 2.5 0 0 0 4.5 32h23a2.5 2.5 0 0 0 2.5-2.5V10c0-.45-.14-1.23-1.32-2.84zm-4.14-1.7A26.3 26.3 0 0 1 26.81 8H22V3.19c.72.56 1.58 1.3 2.54 2.27zM28 29.5a.5.5 0 0 1-.5.5h-23a.5.5 0 0 1-.5-.5v-27c0-.27.23-.5.5-.5H20v7a1 1 0 0 0 1 1h7v19.5z"/></symbol>
<symbol id="video" viewBox="0 0 32 32"><title>Video</title><path d="M28.68 7.16a29.6 29.6 0 0 0-5.84-5.84C21.23.14 20.44 0 20 0H4.5A2.5 2.5 0 0 0 2 2.5v27A2.5 2.5 0 0 0 4.5 32h23a2.5 2.5 0 0 0 2.5-2.5V10c0-.45-.14-1.23-1.32-2.84zm-4.14-1.7A26.3 26.3 0 0 1 26.81 8H22V3.19c.72.56 1.58 1.3 2.54 2.27zM28 29.5a.5.5 0 0 1-.5.5h-23a.5.5 0 0 1-.5-.5v-27c0-.27.23-.5.5-.5H20v7a1 1 0 0 0 1 1h7v19.5z"/><path d="M8 16h10v10H8V16zm10 4l6-4v10l-6-4z"/></symbol>
<symbol id="zip" viewBox="0 0 32 32"><title>Zip Archive</title><path d="M28.68 7.16a29.6 29.6 0 0 0-5.84-5.84C21.23.14 20.44 0 20 0H4.5A2.5 2.5 0 0 0 2 2.5v27A2.5 2.5 0 0 0 4.5 32h23a2.5 2.5 0 0 0 2.5-2.5V10c0-.45-.14-1.23-1.32-2.84zm-4.14-1.7A26.3 26.3 0 0 1 26.81 8H22V3.19c.72.56 1.58 1.3 2.54 2.27zM28 29.5a.5.5 0 0 1-.5.5h-23a.5.5 0 0 1-.5-.5v-27c0-.27.23-.5.5-.5H20v7a1 1 0 0 0 1 1h7v19.5z"/><path d="M8 2h4v2H8V2zm4 2h4v2h-4V4zM8 6h4v2H8V6zm4 2h4v2h-4V8zm-4 2h4v2H8v-2zm4 2h4v2h-4v-2zm-4 2h4v2H8v-2zm4 2h4v2h-4v-2zM8 26.5c0 .82.68 1.5 1.5 1.5h5c.82 0 1.5-.68 1.5-1.5v-5c0-.82-.68-1.5-1.5-1.5H12v-2H8v8.5zm6-2.5v2h-4v-2h4z"/></symbol>
</defs></svg>
